<svg width="231" height="58" viewBox="0 0 231 58" fill="none" xmlns="http://www.w3.org/2000/svg">
<path d="M12.376 46.768C10.936 46.768 9.576 46.56 8.296 46.144C7.016 45.76 5.864 45.168 4.84 44.368C3.816 43.536 2.952 42.512 2.248 41.296C1.544 40.08 1.064 38.656 0.808 37.024L7 34.528C7.064 35.392 7.24 36.192 7.528 36.928C7.816 37.664 8.216 38.304 8.728 38.848C9.24 39.392 9.848 39.824 10.552 40.144C11.288 40.464 12.12 40.624 13.048 40.624C14.712 40.624 16.12 40.224 17.272 39.424C18.424 38.592 19 37.472 19 36.064C19 34.88 18.584 33.888 17.752 33.088C16.92 32.288 15.48 31.488 13.432 30.688L11.752 30.016C10.824 29.664 9.928 29.232 9.064 28.72C8.232 28.176 7.496 27.536 6.856 26.8C6.216 26.064 5.704 25.216 5.32 24.256C4.936 23.264 4.744 22.144 4.744 20.896C4.744 19.456 5.048 18.128 5.656 16.912C6.296 15.664 7.16 14.608 8.248 13.744C9.336 12.848 10.616 12.144 12.088 11.632C13.592 11.12 15.208 10.864 16.936 10.864C18.696 10.864 20.2 11.104 21.448 11.584C22.696 12.064 23.72 12.672 24.52 13.408C25.352 14.144 25.992 14.944 26.44 15.808C26.888 16.64 27.192 17.44 27.352 18.208L21.4 20.464C21.176 19.44 20.648 18.576 19.816 17.872C19.016 17.168 17.832 16.816 16.264 16.816C15.624 16.816 15 16.912 14.392 17.104C13.784 17.264 13.24 17.504 12.76 17.824C12.28 18.144 11.896 18.544 11.608 19.024C11.32 19.504 11.176 20.048 11.176 20.656C11.176 21.712 11.56 22.592 12.328 23.296C13.128 23.968 14.344 24.608 15.976 25.216L17.992 25.936C20.296 26.8 22.12 27.968 23.464 29.44C24.84 30.912 25.528 32.88 25.528 35.344C25.528 37.008 25.208 38.544 24.568 39.952C23.928 41.328 23.032 42.528 21.88 43.552C20.728 44.544 19.336 45.328 17.704 45.904C16.104 46.48 14.328 46.768 12.376 46.768ZM44.4663 42.928H44.0823C43.2503 44.144 42.1623 45.088 40.8183 45.76C39.4743 46.432 37.9863 46.768 36.3543 46.768C35.1383 46.768 34.0663 46.56 33.1383 46.144C32.2103 45.76 31.4263 45.232 30.7863 44.56C30.1463 43.888 29.6663 43.104 29.3463 42.208C29.0263 41.28 28.8663 40.304 28.8663 39.28C28.8663 38.832 28.8823 38.384 28.9143 37.936C28.9463 37.488 29.0103 36.96 29.1063 36.352L31.6023 22.48H37.8423L35.4423 35.968C35.4103 36.16 35.3783 36.368 35.3463 36.592C35.3463 36.784 35.3463 37.056 35.3463 37.408C35.3463 38.432 35.6503 39.28 36.2583 39.952C36.8663 40.624 37.7783 40.96 38.9943 40.96C39.9543 40.96 40.8023 40.784 41.5383 40.432C42.2743 40.08 42.9143 39.6 43.4583 38.992C44.0023 38.352 44.4503 37.616 44.8023 36.784C45.1543 35.92 45.4263 34.992 45.6183 34L47.6343 22.48H53.9223L49.7943 46H43.8903L44.4663 42.928ZM88.3968 46H82.1088L79.6128 29.392L79.2768 25.648H78.8928L77.2608 29.392L69.0048 46H62.6688L59.2608 11.632H66.0288L67.7568 31.696L67.9008 35.392H68.2848L69.9648 31.696L77.5008 16.24H83.6448L85.9008 31.696L86.2368 35.344H86.6208L87.9648 31.696L96.5568 11.632H103.517L88.3968 46ZM113.264 21.712C116.496 21.712 118.96 22.48 120.656 24.016C122.352 25.552 123.2 27.568 123.2 30.064C123.2 30.448 123.168 30.848 123.104 31.264C123.072 31.648 123.024 32.064 122.96 32.512L120.56 46H114.368L114.8 43.504H114.416C113.68 44.432 112.752 45.216 111.632 45.856C110.544 46.464 109.216 46.768 107.648 46.768C106.464 46.768 105.376 46.576 104.384 46.192C103.424 45.84 102.592 45.344 101.888 44.704C101.216 44.032 100.688 43.248 100.304 42.352C99.9198 41.424 99.7278 40.432 99.7278 39.376C99.7278 38.032 99.9838 36.832 100.496 35.776C101.04 34.72 101.792 33.824 102.752 33.088C103.744 32.32 104.912 31.744 106.256 31.36C107.632 30.944 109.136 30.736 110.768 30.736C111.952 30.736 113.024 30.848 113.984 31.072C114.976 31.264 115.92 31.52 116.816 31.84L117.008 31.12C117.072 30.8 117.104 30.544 117.104 30.352C117.104 29.328 116.672 28.48 115.808 27.808C114.976 27.136 113.872 26.8 112.496 26.8C111.28 26.8 110.208 27.04 109.28 27.52C108.352 27.968 107.52 28.624 106.784 29.488L102.56 26.416C103.84 24.784 105.408 23.6 107.264 22.864C109.12 22.096 111.12 21.712 113.264 21.712ZM109.712 41.872C110.512 41.872 111.264 41.728 111.968 41.44C112.704 41.12 113.344 40.72 113.888 40.24C114.464 39.728 114.928 39.152 115.28 38.512C115.664 37.84 115.92 37.152 116.048 36.448C115.568 36.224 114.88 35.984 113.984 35.728C113.12 35.44 112.112 35.296 110.96 35.296C109.616 35.296 108.464 35.6 107.504 36.208C106.544 36.784 106.064 37.68 106.064 38.896C106.064 39.888 106.416 40.64 107.12 41.152C107.856 41.632 108.72 41.872 109.712 41.872ZM135.123 46.384C133.075 46.384 131.395 45.84 130.083 44.752C128.771 43.664 128.115 42 128.115 39.76C128.115 39.408 128.131 39.04 128.163 38.656C128.195 38.24 128.259 37.76 128.355 37.216L129.987 27.856H125.859L126.819 22.48H130.947L132.243 15.28H138.531L137.234 22.48H142.995L142.083 27.856H136.275L134.691 36.928C134.627 37.248 134.595 37.456 134.595 37.552C134.595 37.68 134.595 37.84 134.595 38.032C134.595 38.704 134.755 39.28 135.075 39.76C135.427 40.208 136.019 40.432 136.851 40.432C137.363 40.432 137.779 40.384 138.099 40.288C138.451 40.16 138.787 40 139.107 39.808L140.067 45.52C139.427 45.808 138.707 46.016 137.907 46.144C137.107 46.304 136.179 46.384 135.123 46.384ZM166.73 40.24C165.354 42.288 163.738 43.888 161.882 45.04C160.026 46.192 157.706 46.768 154.922 46.768C153.194 46.768 151.642 46.48 150.266 45.904C148.922 45.328 147.77 44.544 146.81 43.552C145.85 42.528 145.114 41.344 144.602 40C144.09 38.624 143.834 37.168 143.834 35.632C143.834 33.808 144.17 32.064 144.842 30.4C145.514 28.736 146.458 27.264 147.674 25.984C148.89 24.672 150.362 23.632 152.09 22.864C153.818 22.096 155.738 21.712 157.85 21.712C159.578 21.712 161.082 21.984 162.362 22.528C163.674 23.04 164.762 23.744 165.626 24.64C166.522 25.536 167.194 26.576 167.642 27.76C168.09 28.944 168.314 30.192 168.314 31.504C168.314 33.008 168.09 34.4 167.642 35.68H149.93V36.16C149.994 37.888 150.554 39.168 151.61 40C152.698 40.8 153.962 41.2 155.402 41.2C156.938 41.2 158.234 40.912 159.29 40.336C160.346 39.728 161.242 38.864 161.978 37.744L166.73 40.24ZM162.458 31.216V31.024C162.458 29.936 162.026 28.976 161.162 28.144C160.33 27.28 159.05 26.848 157.322 26.848C155.754 26.848 154.378 27.28 153.194 28.144C152.042 28.976 151.242 30 150.794 31.216H162.458ZM169.93 46L174.058 22.48H179.962L179.386 25.744H179.77C180.538 24.624 181.53 23.696 182.746 22.96C183.962 22.192 185.386 21.808 187.018 21.808C187.85 21.808 188.522 21.888 189.034 22.048C189.578 22.208 190.042 22.416 190.426 22.672L188.074 28.384C187.722 28.224 187.306 28.08 186.826 27.952C186.378 27.824 185.818 27.76 185.146 27.76C183.322 27.76 181.786 28.4 180.538 29.68C179.322 30.928 178.538 32.576 178.186 34.624L176.218 46H169.93Z" fill="url(#paint0_linear_635_1090)"/>
<path d="M231 34C231 42.8366 223.837 50 215 50C206.163 50 199 42.8366 199 34C199 25.1634 212 5 214 0C217 7.5 231 25.1634 231 34Z" fill="url(#paint1_linear_635_1090)"/>
<defs>
<linearGradient id="paint0_linear_635_1090" x1="1" y1="58" x2="5.5733" y2="-12.0419" gradientUnits="userSpaceOnUse">
<stop stop-color="#369FFF"/>
<stop offset="1" stop-color="#35A5F4"/>
</linearGradient>
<linearGradient id="paint1_linear_635_1090" x1="199" y1="50" x2="217.153" y2="-4.60346" gradientUnits="userSpaceOnUse">
<stop stop-color="#369FFF"/>
<stop offset="1" stop-color="#35A5F4"/>
</linearGradient>
</defs>
</svg>
